<svg
   width="100.7298mm"
   height="98.522308mm"
   viewBox="0 0 100.7298 98.522308"
   version="1.1"
   id="svg5"
   xml:space="preserve"
   sodipodi:docname="heart.svg"
   xmlns:inkscape="http://www.inkscape.org/namespaces/inkscape"
   xmlns:sodipodi="http://sodipodi.sourceforge.net/DTD/sodipodi-0.dtd"
   xmlns="http://www.w3.org/2000/svg"
   xmlns:svg="http://www.w3.org/2000/svg"><sodipodi:namedview
     id="namedview7"
     pagecolor="#505050"
     bordercolor="#eeeeee"
     borderopacity="1"
     inkscape:showpageshadow="0"
     inkscape:pageopacity="0"
     inkscape:pagecheckerboard="0"
     inkscape:deskcolor="#505050"
     inkscape:document-units="mm"
     showgrid="false" /><defs
     id="defs2" /><path
     fill="currentColor"
     d="m 94.825574,85.852056 a 51.89629,51.37904 0 0 0 -28.850379,-23.071615 30.957191,30.648642 0 1 0 -31.645123,0 51.89629,51.37904 0 0 0 -28.8503798,23.071615 3.4396878,3.4054045 0 1 0 5.9334618,3.405405 44.758939,44.312827 0 0 1 77.478958,0 3.4396878,3.4054045 0 1 0 5.933462,-3.405405 z M 26.074821,36.473691 A 24.077814,23.837832 0 1 1 50.152625,60.311523 24.077814,23.837832 0 0 1 26.074821,36.473691 Z"
     id="path133"
     style="stroke-width:0;stroke-dasharray:none" /></svg>
